<svg xmlns="http://www.w3.org/2000/svg" width="46" height="46" viewBox="0 0 46 46">
  <g id="グループ_18" data-name="グループ 18" transform="translate(-130 -746)">
    <rect id="長方形_12" data-name="長方形 12" width="46" height="46" transform="translate(130 746)" fill="none"/>
    <g id="chat" transform="translate(139 750.8)">
      <path id="パス_5" data-name="パス 5" d="M115.147,200.464a1.463,1.463,0,1,0,1.462,1.463A1.463,1.463,0,0,0,115.147,200.464Z" transform="translate(-107.842 -193.307)" fill="#fff"/>
      <path id="パス_6" data-name="パス 6" d="M228.993,200.464a1.463,1.463,0,1,0,1.463,1.463A1.462,1.462,0,0,0,228.993,200.464Z" transform="translate(-215.838 -193.307)" fill="#fff"/>
      <path id="パス_7" data-name="パス 7" d="M342.823,200.464a1.463,1.463,0,1,0,1.463,1.463A1.462,1.462,0,0,0,342.823,200.464Z" transform="translate(-323.819 -193.307)" fill="#fff"/>
      <path id="パス_8" data-name="パス 8" d="M26.308,69.649a8.554,8.554,0,0,0-2.5-5.986,8.374,8.374,0,0,0-5.979-2.483H8.478a8.477,8.477,0,1,0,0,16.955h7.7a.26.26,0,0,1,.22.1.355.355,0,0,1,.032.3,3.649,3.649,0,0,1-.415.809c-.187.308-.359.568-.4.623-.261.391-.351.723-.253.934a.629.629,0,0,0,.545.291,3.351,3.351,0,0,0,.36.019c.066,0,.132,0,.189-.007a11.286,11.286,0,0,0,2.345-.429,10.5,10.5,0,0,0,4.924-3.115,11.672,11.672,0,0,0,2.579-7.814Zm-2.623,5.3a8.257,8.257,0,0,1-3.915,3.792,9.888,9.888,0,0,1-1.893.673l-.171.042.111-.242a2.8,2.8,0,0,0,.113-.265,2.085,2.085,0,0,0,.125-.659,1.551,1.551,0,0,0-.143-.649,1.7,1.7,0,0,0-.786-.789,2.829,2.829,0,0,0-1.29-.267H8.478a6.929,6.929,0,0,1,0-13.859h9.353a6.856,6.856,0,0,1,4.883,2.028,7.025,7.025,0,0,1,2.048,4.908v.173A11.352,11.352,0,0,1,23.685,74.949Z" transform="translate(0 -61.18)" fill="#fff"/>
    </g>
    <text id="チャット" transform="translate(153 786)" fill="#fff" font-size="8" font-family="HiraginoSans-W3, Hiragino Sans"><tspan x="-16" y="0">チャット</tspan></text>
  </g>
</svg>
