<svg xmlns="http://www.w3.org/2000/svg" width="46" height="46" viewBox="0 0 46 46">
  <g id="グループ_20" data-name="グループ 20" transform="translate(-296 -746)">
    <rect id="長方形_10" data-name="長方形 10" width="46" height="46" transform="translate(296 746)" fill="none"/>
    <g id="human" transform="translate(310 750)">
      <path id="パス_3" data-name="パス 3" d="M40.608,8.822C40.424,3.873,36.73,0,32.185,0S23.933,3.934,23.76,8.841c-.582,1.242-1.631,3.575-1.679,3.682a2.37,2.37,0,0,0-.024,1.9A2.066,2.066,0,0,0,23.4,15.642l.384.105c.186.917.466,2.3.554,2.74.331,1.66,1.13,2.368,2.672,2.368a6.11,6.11,0,0,0,.643-.036v1.564H37.9V18.046a4.214,4.214,0,0,1,.719-2.465A9.927,9.927,0,0,0,40.608,8.822Zm-2.991,5.852A5.728,5.728,0,0,0,36.6,18.046v2.917H28.96V19.12a8.1,8.1,0,0,1-1.945.315c-.891,0-1.2-.223-1.4-1.25-.135-.678-.729-3.6-.729-3.6l-1.165-.318a.74.74,0,0,1-.48-.435.85.85,0,0,1,.01-.681s1.274-2.834,1.805-3.95c0-4.3,3.193-7.778,7.13-7.778,3.846,0,6.979,3.324,7.123,7.483A8.42,8.42,0,0,1,37.617,14.674Z" transform="translate(-21.87)" fill="#fff"/>
    </g>
    <text id="マイページ" transform="translate(319 786)" fill="#fff" font-size="8" font-family="HiraginoSans-W3, Hiragino Sans"><tspan x="-19.24" y="0">マイページ</tspan></text>
  </g>
</svg>
