<svg xmlns="http://www.w3.org/2000/svg" width="46" height="46" viewBox="0 0 46 46">
  <g id="グループ_19" data-name="グループ 19" transform="translate(-216 -746)">
    <rect id="長方形_13" data-name="長方形 13" width="46" height="46" transform="translate(216 746)" fill="none"/>
    <path id="パス_9" data-name="パス 9" d="M55.073,18.193a18.684,18.684,0,0,1-1.58-3.013,15.556,15.556,0,0,1-.955-4.063,13.662,13.662,0,0,0-.774-3.348,8.315,8.315,0,0,0-1.037-1.941,5.974,5.974,0,0,0-2.247-1.9,5.831,5.831,0,0,0-.962-.363h0A2.762,2.762,0,0,0,47.58,1.5,2.416,2.416,0,0,0,46.8.421,1.974,1.974,0,0,0,45.59,0a1.941,1.941,0,0,0-.842.194,2.256,2.256,0,0,0-.95.89,2.69,2.69,0,0,0-.369,1.375,2.741,2.741,0,0,0,.17.957c.019.053.04.1.063.154h0a5.957,5.957,0,0,0-.668.23,5.754,5.754,0,0,0-1.638,1.029,7.23,7.23,0,0,0-1.794,2.584,13.125,13.125,0,0,0-.919,3.706,15.589,15.589,0,0,1-.956,4.063,18.749,18.749,0,0,1-1.579,3.013,4.234,4.234,0,0,0-.626,2.214A3.988,3.988,0,0,0,35.63,21.5a2.991,2.991,0,0,0,.759,1.331,2.064,2.064,0,0,0,.616.42,1.827,1.827,0,0,0,.736.154h4.649a4.026,4.026,0,0,0,.236,1.053,3.622,3.622,0,0,0,1.164,1.609,2.95,2.95,0,0,0,1.8.625,2.881,2.881,0,0,0,1.252-.288,3.365,3.365,0,0,0,1.416-1.325A3.962,3.962,0,0,0,48.79,23.4h4.648a1.848,1.848,0,0,0,.957-.269,2.243,2.243,0,0,0,.566-.49,3.07,3.07,0,0,0,.548-1.019,3.929,3.929,0,0,0,.188-1.217A4.241,4.241,0,0,0,55.073,18.193ZM44.9,2.125a.848.848,0,0,1,.273-.377.686.686,0,0,1,.42-.145.675.675,0,0,1,.292.067.793.793,0,0,1,.332.311.928.928,0,0,1,.128.478.948.948,0,0,1-.059.333.845.845,0,0,1-.273.377.68.68,0,0,1-.42.146.669.669,0,0,1-.293-.067.786.786,0,0,1-.332-.311.934.934,0,0,1-.128-.478A.949.949,0,0,1,44.9,2.125ZM38.971,15.835a17.375,17.375,0,0,0,1.068-4.513,11.912,11.912,0,0,1,.667-2.912,6.662,6.662,0,0,1,.828-1.556A4.535,4.535,0,0,1,43.247,5.4a5.351,5.351,0,0,1,2.343-.49A5.489,5.489,0,0,1,47.7,5.3a4.37,4.37,0,0,1,1.25.785,5.637,5.637,0,0,1,1.4,2.026,11.41,11.41,0,0,1,.787,3.209,17.377,17.377,0,0,0,1.068,4.513A17.018,17.018,0,0,0,53.3,18.08H37.877A16.993,16.993,0,0,0,38.971,15.835Zm8.286,7.993a2.035,2.035,0,0,1-.657.906,1.642,1.642,0,0,1-1.01.35,1.613,1.613,0,0,1-.7-.161,1.9,1.9,0,0,1-.8-.746,2.2,2.2,0,0,1-.28-.777h3.559A2.239,2.239,0,0,1,47.257,23.829ZM54.208,21a1.37,1.37,0,0,1-.334.607.694.694,0,0,1-.205.142.56.56,0,0,1-.23.048H37.74a.577.577,0,0,1-.3-.084.786.786,0,0,1-.2-.178,1.405,1.405,0,0,1-.248-.47,2.146,2.146,0,0,1-.1-.661,2.464,2.464,0,0,1,.306-1.183H53.984a2.47,2.47,0,0,1,.305,1.183A2.169,2.169,0,0,1,54.208,21Z" transform="translate(193.519 748)" fill="#fff"/>
    <text id="通知" transform="translate(239 786)" fill="#fff" font-size="8" font-family="HiraginoSans-W3, Hiragino Sans"><tspan x="-8" y="0">通知</tspan></text>
  </g>
</svg>
