<svg xmlns="http://www.w3.org/2000/svg" width="101.186" height="13.829" viewBox="0 0 101.186 13.829">
  <g id="グループ_21" data-name="グループ 21" transform="translate(-236 -542.75)">
    <g id="star" transform="translate(236 531.653)">
      <path id="パス_13" data-name="パス 13" d="M13.888,16.385a.737.737,0,0,0-.7-.511H8.953l-1.29-4.015a.737.737,0,0,0-1.4,0L4.971,15.873H.737a.737.737,0,0,0-.43,1.335l3.433,2.465L2.419,23.686a.737.737,0,0,0,1.135.825l3.408-2.5,3.408,2.5a.737.737,0,0,0,1.135-.825l-1.322-4.012,3.433-2.465A.737.737,0,0,0,13.888,16.385Z" fill="#71c6d3"/>
    </g>
    <g id="star-2" data-name="star" transform="translate(258 531.653)">
      <path id="パス_13-2" data-name="パス 13" d="M13.888,16.385a.737.737,0,0,0-.7-.511H8.953l-1.29-4.015a.737.737,0,0,0-1.4,0L4.971,15.873H.737a.737.737,0,0,0-.43,1.335l3.433,2.465L2.419,23.686a.737.737,0,0,0,1.135.825l3.408-2.5,3.408,2.5a.737.737,0,0,0,1.135-.825l-1.322-4.012,3.433-2.465A.737.737,0,0,0,13.888,16.385Z" fill="#71c6d3"/>
    </g>
    <g id="star-3" data-name="star" transform="translate(280 531.653)">
      <path id="パス_13-3" data-name="パス 13" d="M13.888,16.385a.737.737,0,0,0-.7-.511H8.953l-1.29-4.015a.737.737,0,0,0-1.4,0L4.971,15.873H.737a.737.737,0,0,0-.43,1.335l3.433,2.465L2.419,23.686a.737.737,0,0,0,1.135.825l3.408-2.5,3.408,2.5a.737.737,0,0,0,1.135-.825l-1.322-4.012,3.433-2.465A.737.737,0,0,0,13.888,16.385Z" fill="#71c6d3"/>
    </g>
    <g id="star-4" data-name="star" transform="translate(301 531.653)">
      <path id="パス_13-4" data-name="パス 13" d="M13.888,16.385a.737.737,0,0,0-.7-.511H8.953l-1.29-4.015a.737.737,0,0,0-1.4,0L4.971,15.873H.737a.737.737,0,0,0-.43,1.335l3.433,2.465L2.419,23.686a.737.737,0,0,0,1.135.825l3.408-2.5,3.408,2.5a.737.737,0,0,0,1.135-.825l-1.322-4.012,3.433-2.465A.737.737,0,0,0,13.888,16.385Z" fill="#71c6d3"/>
    </g>
    <g id="star-5" data-name="star" transform="translate(323 531.653)">
      <path id="パス_13-5" data-name="パス 13" d="M13.888,16.385a.737.737,0,0,0-.7-.511H8.953l-1.29-4.015a.737.737,0,0,0-1.4,0L4.971,15.873H.737a.737.737,0,0,0-.43,1.335l3.433,2.465L2.419,23.686a.737.737,0,0,0,1.135.825l3.408-2.5,3.408,2.5a.737.737,0,0,0,1.135-.825l-1.322-4.012,3.433-2.465A.737.737,0,0,0,13.888,16.385Z" fill="none" stroke="#707070" stroke-width="0.5"/>
    </g>
  </g>
</svg>
